<svg width="82" height="21" viewBox="0 0 82 21" fill="none" xmlns="http://www.w3.org/2000/svg">
<path fill-rule="evenodd" clip-rule="evenodd" d="M12 2.5H8V6.5H4H0V10.5V14.5V18.5H4H8V14.5H12H16V10.5V6.5V2.5H12ZM4 14.5H8V10.5H12V6.5H8V10.5H4V14.5Z" fill="#282C33"/>
<path d="M32.984 8.28C32.984 8.808 32.8853 9.26933 32.688 9.664C32.4907 10.0587 32.224 10.392 31.888 10.664C31.552 10.936 31.176 11.1547 30.76 11.32L33.664 16H30.696L28.296 11.76H27.552V16H24.928V4.912H28.416C29.9253 4.912 31.064 5.18667 31.832 5.736C32.6 6.28533 32.984 7.13333 32.984 8.28ZM30.28 8.28C30.28 7.74667 30.1227 7.36 29.808 7.12C29.4987 6.87467 29.0373 6.752 28.424 6.752H27.552V9.96H28.528C29.0987 9.96 29.5333 9.82667 29.832 9.56C30.1307 9.29333 30.28 8.86667 30.28 8.28ZM41.8658 13.552C41.8658 13.872 41.9084 14.104 41.9938 14.248C42.0844 14.392 42.2284 14.5013 42.4258 14.576L41.9058 16.24C41.4044 16.192 40.9804 16.0827 40.6338 15.912C40.2924 15.736 40.0231 15.472 39.8258 15.12C39.5004 15.5093 39.0844 15.8 38.5778 15.992C38.0711 16.1787 37.5538 16.272 37.0258 16.272C36.1511 16.272 35.4524 16.024 34.9298 15.528C34.4124 15.0267 34.1538 14.384 34.1538 13.6C34.1538 12.6773 34.5138 11.9653 35.2338 11.464C35.9591 10.9627 36.9778 10.712 38.2898 10.712H39.4338V10.392C39.4338 9.94933 39.2898 9.62133 39.0018 9.408C38.7191 9.19467 38.3031 9.088 37.7538 9.088C37.4818 9.088 37.1324 9.128 36.7058 9.208C36.2791 9.28267 35.8524 9.392 35.4258 9.536L34.8418 7.856C35.3911 7.648 35.9618 7.49067 36.5538 7.384C37.1511 7.27733 37.6844 7.224 38.1538 7.224C39.4178 7.224 40.3511 7.48267 40.9538 8C41.5618 8.512 41.8658 9.25333 41.8658 10.224V13.552ZM37.8978 14.464C38.1698 14.464 38.4551 14.384 38.7538 14.224C39.0524 14.0587 39.2791 13.8267 39.4338 13.528V12.152H38.8098C38.1058 12.152 37.5884 12.2613 37.2578 12.48C36.9271 12.6933 36.7618 13.008 36.7618 13.424C36.7618 13.7493 36.8604 14.0053 37.0578 14.192C37.2604 14.3733 37.5404 14.464 37.8978 14.464ZM47.3235 14.088H51.5795L51.3395 16H44.3395V14.216L48.5555 9.408H44.6915V7.504H51.4995V9.28L47.3235 14.088ZM59.0933 7.504V14.272H61.2533V16H54.1573V14.272H56.5653V9.232H54.2373V7.504H59.0933ZM57.5653 3.056C58.0026 3.056 58.3599 3.192 58.6373 3.464C58.9146 3.736 59.0533 4.07467 59.0533 4.48C59.0533 4.88533 58.9146 5.22667 58.6373 5.504C58.3599 5.776 58.0026 5.912 57.5653 5.912C57.1226 5.912 56.7599 5.776 56.4773 5.504C56.1999 5.22667 56.0613 4.88533 56.0613 4.48C56.0613 4.07467 56.1999 3.736 56.4773 3.464C56.7599 3.192 57.1226 3.056 57.5653 3.056ZM66.023 7.504V13.32C66.023 13.7307 66.0977 14.0133 66.247 14.168C66.4017 14.3227 66.615 14.4 66.887 14.4C67.1483 14.4 67.4097 14.3173 67.671 14.152C67.9323 13.9867 68.151 13.7627 68.327 13.48V7.504H70.855V16H68.647L68.535 15.008C68.247 15.424 67.8683 15.7387 67.399 15.952C66.9297 16.1653 66.439 16.272 65.927 16.272C65.1057 16.272 64.495 16.0347 64.095 15.56C63.695 15.08 63.495 14.4373 63.495 13.632V7.504H66.023ZM73.1688 16V14.304H74.2888V9.184H73.1688V7.504H76.2168L76.6808 9.416C76.9848 8.68533 77.3714 8.14133 77.8408 7.784C78.3154 7.42667 78.8941 7.248 79.5768 7.248C79.8648 7.248 80.1208 7.272 80.3448 7.32C80.5688 7.36267 80.7794 7.424 80.9768 7.504L80.2088 9.592C80.0541 9.54933 79.8994 9.51733 79.7448 9.496C79.5901 9.47467 79.4194 9.464 79.2328 9.464C78.6781 9.464 78.1901 9.69067 77.7688 10.144C77.3528 10.5973 77.0354 11.1733 76.8168 11.872V14.304H78.4968V16H73.1688ZM78.9208 11.056V8.576L79.2968 7.504H80.9768L80.5048 11.056H78.9208Z" fill="#282C33"/>
</svg>
